<?xml version="1.0" standalone="no"?>
<!DOCTYPE svg PUBLIC "-//W3C//DTD SVG 20010904//EN"
 "http://www.w3.org/TR/2001/REC-SVG-20010904/DTD/svg10.dtd">
<svg version="1.0" xmlns="http://www.w3.org/2000/svg"
 width="512.000000pt" height="512.000000pt" viewBox="0 0 512.000000 512.000000"
 preserveAspectRatio="xMidYMid meet">
<metadata>
Created by potrace 1.11, written by Peter Selinger 2001-2013
</metadata>
<g transform="translate(0.000000,512.000000) scale(0.100000,-0.100000)"
fill="#000000" stroke="none">
<path d="M398 5108 c5 -7 19 -29 29 -48 11 -19 74 -123 140 -230 66 -107 207
-337 313 -510 106 -173 216 -353 245 -400 29 -47 117 -191 195 -320 79 -129
158 -257 175 -285 30 -48 374 -608 398 -650 7 -11 20 -32 29 -46 17 -26 17
-27 -21 -85 -35 -53 -315 -492 -430 -672 -25 -40 -76 -119 -112 -175 -36 -56
-119 -185 -184 -287 -215 -337 -304 -475 -430 -670 -34 -52 -98 -153 -144
-225 -45 -72 -132 -206 -192 -300 -60 -94 -114 -178 -120 -187 -9 -17 23 -18
625 -18 l635 0 39 68 c22 37 49 83 59 102 11 19 136 238 278 485 142 248 267
466 278 485 11 19 56 98 100 175 44 77 89 156 99 175 102 179 151 260 159 260
5 0 9 -4 9 -8 0 -5 57 -107 126 -228 69 -120 136 -237 148 -259 13 -22 126
-220 251 -440 125 -220 237 -416 248 -435 10 -19 23 -39 27 -45 4 -5 21 -35
37 -65 46 -84 144 -254 152 -263 4 -4 294 -6 644 -5 l638 3 -169 270 c-93 149
-217 347 -275 440 -58 94 -110 175 -115 180 -4 6 -22 35 -40 65 -18 30 -65
107 -105 170 -40 63 -274 436 -520 828 l-447 714 47 74 c27 41 85 132 130 202
45 70 96 150 113 177 17 28 48 76 68 107 20 32 69 107 107 168 39 61 86 135
105 165 19 30 73 115 119 188 47 72 119 186 162 252 313 488 579 908 579 915
0 5 3 10 8 12 4 2 25 32 48 68 22 36 48 77 58 93 l18 27 -622 -2 -623 -3 -16
-30 c-9 -16 -21 -37 -26 -45 -5 -8 -10 -17 -10 -20 0 -3 -8 -16 -16 -30 -9
-14 -37 -61 -61 -105 -25 -44 -145 -258 -268 -475 -123 -217 -235 -416 -249
-441 -208 -369 -277 -489 -281 -489 -3 1 -72 125 -155 277 -82 152 -161 297
-175 322 -14 25 -52 96 -84 156 -33 61 -68 122 -78 138 -11 15 -16 27 -12 27
3 0 2 6 -4 13 -9 10 -222 397 -335 607 -22 41 -44 81 -50 88 -7 9 -148 12
-644 12 -507 0 -633 -3 -625 -12z"/>
</g>
</svg>
